<mxfile host="Electron" agent="Mozilla/5.0 (X11; Linux x86_64) AppleWebKit/537.36 (KHTML, like Gecko) draw.io/24.7.5 Chrome/126.0.6478.183 Electron/31.3.0 Safari/537.36" version="24.7.5">
  <diagram name="Page-1" id="qrwW4q_W7vreubdQsxT6">
    <mxGraphModel dx="902" dy="535" grid="1" gridSize="10" guides="1" tooltips="1" connect="1" arrows="1" fold="1" page="1" pageScale="1" pageWidth="2339" pageHeight="3300" math="0" shadow="0">
      <root>
        <mxCell id="0" />
        <mxCell id="1" parent="0" />
        <mxCell id="a9jxfNNQVSlXKTRZHNyh-4" value="" style="group" vertex="1" connectable="0" parent="1">
          <mxGeometry x="840" y="400" width="60" height="120" as="geometry" />
        </mxCell>
        <mxCell id="a9jxfNNQVSlXKTRZHNyh-5" value="" style="verticalLabelPosition=bottom;verticalAlign=top;html=1;shadow=0;dashed=0;strokeWidth=1;shape=mxgraph.android.phone2;strokeColor=#6c8ebf;fillColor=#dae8fc;" vertex="1" parent="a9jxfNNQVSlXKTRZHNyh-4">
          <mxGeometry width="60" height="120" as="geometry" />
        </mxCell>
        <mxCell id="a9jxfNNQVSlXKTRZHNyh-6" value="Login" style="text;html=1;align=center;verticalAlign=middle;whiteSpace=wrap;rounded=0;" vertex="1" parent="a9jxfNNQVSlXKTRZHNyh-4">
          <mxGeometry y="45" width="60" height="30" as="geometry" />
        </mxCell>
        <mxCell id="a9jxfNNQVSlXKTRZHNyh-7" value="" style="group" vertex="1" connectable="0" parent="1">
          <mxGeometry x="840" y="600" width="60" height="120" as="geometry" />
        </mxCell>
        <mxCell id="a9jxfNNQVSlXKTRZHNyh-8" value="" style="verticalLabelPosition=bottom;verticalAlign=top;html=1;shadow=0;dashed=0;strokeWidth=1;shape=mxgraph.android.phone2;strokeColor=#6c8ebf;fillColor=#dae8fc;" vertex="1" parent="a9jxfNNQVSlXKTRZHNyh-7">
          <mxGeometry width="60" height="120" as="geometry" />
        </mxCell>
        <mxCell id="a9jxfNNQVSlXKTRZHNyh-9" value="Register" style="text;html=1;align=center;verticalAlign=middle;whiteSpace=wrap;rounded=0;" vertex="1" parent="a9jxfNNQVSlXKTRZHNyh-7">
          <mxGeometry y="45" width="60" height="30" as="geometry" />
        </mxCell>
        <mxCell id="a9jxfNNQVSlXKTRZHNyh-10" value="" style="group" vertex="1" connectable="0" parent="1">
          <mxGeometry x="1000" y="400" width="60" height="120" as="geometry" />
        </mxCell>
        <mxCell id="a9jxfNNQVSlXKTRZHNyh-11" value="" style="verticalLabelPosition=bottom;verticalAlign=top;html=1;shadow=0;dashed=0;strokeWidth=1;shape=mxgraph.android.phone2;strokeColor=#6c8ebf;fillColor=#dae8fc;" vertex="1" parent="a9jxfNNQVSlXKTRZHNyh-10">
          <mxGeometry width="60" height="120" as="geometry" />
        </mxCell>
        <mxCell id="a9jxfNNQVSlXKTRZHNyh-12" value="Home" style="text;html=1;align=center;verticalAlign=middle;whiteSpace=wrap;rounded=0;" vertex="1" parent="a9jxfNNQVSlXKTRZHNyh-10">
          <mxGeometry y="45" width="60" height="30" as="geometry" />
        </mxCell>
        <mxCell id="a9jxfNNQVSlXKTRZHNyh-13" value="" style="group" vertex="1" connectable="0" parent="1">
          <mxGeometry x="1160" y="400" width="60" height="120" as="geometry" />
        </mxCell>
        <mxCell id="a9jxfNNQVSlXKTRZHNyh-14" value="" style="verticalLabelPosition=bottom;verticalAlign=top;html=1;shadow=0;dashed=0;strokeWidth=1;shape=mxgraph.android.phone2;strokeColor=#6c8ebf;fillColor=#dae8fc;" vertex="1" parent="a9jxfNNQVSlXKTRZHNyh-13">
          <mxGeometry width="60" height="120" as="geometry" />
        </mxCell>
        <mxCell id="a9jxfNNQVSlXKTRZHNyh-15" value="Chat" style="text;html=1;align=center;verticalAlign=middle;whiteSpace=wrap;rounded=0;" vertex="1" parent="a9jxfNNQVSlXKTRZHNyh-13">
          <mxGeometry y="45" width="60" height="30" as="geometry" />
        </mxCell>
        <mxCell id="a9jxfNNQVSlXKTRZHNyh-17" style="edgeStyle=orthogonalEdgeStyle;rounded=0;orthogonalLoop=1;jettySize=auto;html=1;" edge="1" parent="1" source="a9jxfNNQVSlXKTRZHNyh-6" target="a9jxfNNQVSlXKTRZHNyh-12">
          <mxGeometry relative="1" as="geometry" />
        </mxCell>
        <mxCell id="a9jxfNNQVSlXKTRZHNyh-18" style="edgeStyle=orthogonalEdgeStyle;rounded=0;orthogonalLoop=1;jettySize=auto;html=1;startArrow=classic;startFill=1;" edge="1" parent="1" source="a9jxfNNQVSlXKTRZHNyh-12" target="a9jxfNNQVSlXKTRZHNyh-15">
          <mxGeometry relative="1" as="geometry" />
        </mxCell>
        <mxCell id="a9jxfNNQVSlXKTRZHNyh-19" style="edgeStyle=orthogonalEdgeStyle;rounded=0;orthogonalLoop=1;jettySize=auto;html=1;startArrow=classic;startFill=1;" edge="1" parent="1" source="a9jxfNNQVSlXKTRZHNyh-6" target="a9jxfNNQVSlXKTRZHNyh-9">
          <mxGeometry relative="1" as="geometry" />
        </mxCell>
        <mxCell id="a9jxfNNQVSlXKTRZHNyh-31" style="edgeStyle=orthogonalEdgeStyle;rounded=0;orthogonalLoop=1;jettySize=auto;html=1;" edge="1" parent="1" source="a9jxfNNQVSlXKTRZHNyh-20" target="a9jxfNNQVSlXKTRZHNyh-6">
          <mxGeometry relative="1" as="geometry" />
        </mxCell>
        <mxCell id="a9jxfNNQVSlXKTRZHNyh-34" value="no" style="edgeLabel;html=1;align=center;verticalAlign=middle;resizable=0;points=[];" vertex="1" connectable="0" parent="a9jxfNNQVSlXKTRZHNyh-31">
          <mxGeometry x="-0.2074" y="1" relative="1" as="geometry">
            <mxPoint as="offset" />
          </mxGeometry>
        </mxCell>
        <mxCell id="a9jxfNNQVSlXKTRZHNyh-35" style="edgeStyle=orthogonalEdgeStyle;rounded=0;orthogonalLoop=1;jettySize=auto;html=1;" edge="1" parent="1" source="a9jxfNNQVSlXKTRZHNyh-20" target="a9jxfNNQVSlXKTRZHNyh-12">
          <mxGeometry relative="1" as="geometry">
            <Array as="points">
              <mxPoint x="680" y="370" />
              <mxPoint x="980" y="370" />
              <mxPoint x="980" y="460" />
            </Array>
          </mxGeometry>
        </mxCell>
        <mxCell id="a9jxfNNQVSlXKTRZHNyh-36" value="yes" style="edgeLabel;html=1;align=center;verticalAlign=middle;resizable=0;points=[];" vertex="1" connectable="0" parent="a9jxfNNQVSlXKTRZHNyh-35">
          <mxGeometry x="-0.3649" y="2" relative="1" as="geometry">
            <mxPoint as="offset" />
          </mxGeometry>
        </mxCell>
        <mxCell id="a9jxfNNQVSlXKTRZHNyh-20" value="logged in?" style="rhombus;whiteSpace=wrap;html=1;" vertex="1" parent="1">
          <mxGeometry x="640" y="440" width="80" height="40" as="geometry" />
        </mxCell>
        <mxCell id="a9jxfNNQVSlXKTRZHNyh-22" value="sidebar" style="swimlane;fontStyle=0;childLayout=stackLayout;horizontal=1;startSize=30;horizontalStack=0;resizeParent=1;resizeParentMax=0;resizeLast=0;collapsible=1;marginBottom=0;whiteSpace=wrap;html=1;" vertex="1" parent="1">
          <mxGeometry x="960" y="240" width="140" height="60" as="geometry" />
        </mxCell>
        <mxCell id="a9jxfNNQVSlXKTRZHNyh-25" value="log out" style="text;strokeColor=none;fillColor=none;align=left;verticalAlign=middle;spacingLeft=4;spacingRight=4;overflow=hidden;points=[[0,0.5],[1,0.5]];portConstraint=eastwest;rotatable=0;whiteSpace=wrap;html=1;" vertex="1" parent="a9jxfNNQVSlXKTRZHNyh-22">
          <mxGeometry y="30" width="140" height="30" as="geometry" />
        </mxCell>
        <mxCell id="a9jxfNNQVSlXKTRZHNyh-26" style="edgeStyle=orthogonalEdgeStyle;rounded=0;orthogonalLoop=1;jettySize=auto;html=1;endArrow=none;endFill=0;" edge="1" parent="1" source="a9jxfNNQVSlXKTRZHNyh-11" target="a9jxfNNQVSlXKTRZHNyh-22">
          <mxGeometry relative="1" as="geometry" />
        </mxCell>
        <mxCell id="a9jxfNNQVSlXKTRZHNyh-30" style="edgeStyle=orthogonalEdgeStyle;rounded=0;orthogonalLoop=1;jettySize=auto;html=1;entryX=0;entryY=0.5;entryDx=0;entryDy=0;" edge="1" parent="1" source="a9jxfNNQVSlXKTRZHNyh-25" target="a9jxfNNQVSlXKTRZHNyh-20">
          <mxGeometry relative="1" as="geometry" />
        </mxCell>
        <mxCell id="a9jxfNNQVSlXKTRZHNyh-37" value="" style="endArrow=classic;html=1;rounded=0;" edge="1" parent="1" target="a9jxfNNQVSlXKTRZHNyh-20">
          <mxGeometry width="50" height="50" relative="1" as="geometry">
            <mxPoint x="680" y="540" as="sourcePoint" />
            <mxPoint x="730" y="490" as="targetPoint" />
          </mxGeometry>
        </mxCell>
      </root>
    </mxGraphModel>
  </diagram>
</mxfile>
